<svg  viewBox="0 0 351 44" fill="none" xmlns="http://www.w3.org/2000/svg">
<path d="M11.2249 6.44507H23.0531C24.1618 6.44507 24.7548 7.29028 24.3776 8.33289L13.8359 37.47H0.000118539L11.2249 6.44507Z" fill="white"/>
<path d="M32.0281 6.44507H43.8563C44.965 6.44507 45.5581 7.29028 45.1809 8.33289L34.6391 37.47H20.8033L32.0281 6.44507Z" fill="white"/>
<path d="M52.8315 6.44507H64.6597C65.7685 6.44507 66.3615 7.29028 65.9843 8.33289L55.4426 37.47H41.6068L52.8315 6.44507Z" fill="white"/>
<path fill-rule="evenodd" clip-rule="evenodd" d="M76.1589 37.4699H62.41L70.6582 12.9912H80.2098C84.4167 12.9912 88.3666 15.0157 90.8231 18.4309H80.2892L78.3743 24.1728H92.1513C99.838 24.1728 106.342 29.8532 107.376 37.4699H87.5351C87.9054 34.2821 86.4895 31.3892 83.973 30.6095C81.0254 29.6961 77.6839 32.028 76.5096 35.8178C76.3382 36.371 76.2224 36.9248 76.1589 37.4699Z" fill="white"/>
<path d="M137.199 22.4178C137.199 20.2083 136.908 18.6432 136.325 17.7225C135.772 16.8019 134.805 16.3415 133.424 16.3415C132.995 16.3415 132.55 16.3722 132.09 16.4336C131.629 16.4643 131.184 16.5103 130.755 16.5717V35.2609H123.896V11.8764C124.479 11.7229 125.154 11.5695 125.921 11.4161C126.719 11.2319 127.548 11.0785 128.407 10.9557C129.297 10.8023 130.202 10.6949 131.123 10.6335C132.044 10.5414 132.949 10.4954 133.839 10.4954C135.588 10.4954 137 10.7256 138.074 11.1859C139.179 11.6155 140.084 12.1372 140.79 12.751C141.772 12.0452 142.892 11.4928 144.15 11.0938C145.439 10.6949 146.62 10.4954 147.695 10.4954C149.628 10.4954 151.208 10.7716 152.436 11.324C153.694 11.8457 154.691 12.5976 155.428 13.5796C156.165 14.5616 156.671 15.7278 156.947 17.0781C157.223 18.4283 157.361 19.9321 157.361 21.5892V35.2609H150.503V22.4178C150.503 20.2083 150.211 18.6432 149.628 17.7225C149.076 16.8019 148.109 16.3415 146.728 16.3415C146.36 16.3415 145.838 16.4336 145.163 16.6177C144.518 16.8019 143.981 17.032 143.552 17.3082C143.766 18.0141 143.905 18.7659 143.966 19.5638C144.027 20.331 144.058 21.1596 144.058 22.0496V35.2609H137.199V22.4178Z" fill="white"/>
<path d="M170.449 35.2609H163.59V11.0478H170.449V35.2609ZM171.093 4.05086C171.093 5.30908 170.679 6.30645 169.85 7.04297C169.052 7.7488 168.101 8.10172 166.996 8.10172C165.891 8.10172 164.925 7.7488 164.096 7.04297C163.298 6.30645 162.899 5.30908 162.899 4.05086C162.899 2.79264 163.298 1.81061 164.096 1.10478C164.925 0.36826 165.891 0 166.996 0C168.101 0 169.052 0.36826 169.85 1.10478C170.679 1.81061 171.093 2.79264 171.093 4.05086Z" fill="white"/>
<path d="M176.666 5.01754L183.525 3.91276V11.0478H191.765V16.7558H183.525V25.2718C183.525 26.7142 183.77 27.865 184.261 28.7243C184.783 29.5836 185.811 30.0132 187.345 30.0132C188.082 30.0132 188.834 29.9518 189.601 29.8291C190.399 29.6756 191.12 29.4761 191.765 29.2306L192.731 34.5704C191.903 34.908 190.982 35.1995 189.969 35.445C188.957 35.6905 187.714 35.8133 186.241 35.8133C184.369 35.8133 182.819 35.5678 181.591 35.0768C180.364 34.5551 179.382 33.8492 178.645 32.9593C177.909 32.0386 177.387 30.9338 177.08 29.6449C176.804 28.356 176.666 26.929 176.666 25.3639V5.01754Z" fill="white"/>
<path d="M211.942 17.1241C211.328 16.9706 210.607 16.8172 209.779 16.6638C208.95 16.4796 208.06 16.3876 207.109 16.3876C206.679 16.3876 206.158 16.4336 205.544 16.5257C204.961 16.587 204.516 16.6638 204.209 16.7558V35.2609H197.35V12.3367C198.577 11.9071 200.02 11.5081 201.677 11.1399C203.365 10.7409 205.237 10.5414 207.293 10.5414C207.661 10.5414 208.106 10.5721 208.628 10.6335C209.15 10.6642 209.671 10.7256 210.193 10.8176C210.715 10.879 211.236 10.9711 211.758 11.0938C212.28 11.1859 212.725 11.3087 213.093 11.4621L211.942 17.1241Z" fill="white"/>
<path d="M225.573 30.4735C226.248 30.4735 226.893 30.4582 227.506 30.4275C228.12 30.3968 228.611 30.3508 228.979 30.2894V25.0877C228.703 25.0263 228.289 24.965 227.736 24.9036C227.184 24.8422 226.678 24.8115 226.217 24.8115C225.573 24.8115 224.959 24.8575 224.376 24.9496C223.824 25.011 223.333 25.1491 222.903 25.3639C222.473 25.5787 222.136 25.8703 221.89 26.2385C221.645 26.6068 221.522 27.0671 221.522 27.6195C221.522 28.6936 221.875 29.4455 222.581 29.8751C223.317 30.274 224.315 30.4735 225.573 30.4735ZM225.021 10.4033C227.046 10.4033 228.734 10.6335 230.084 11.0938C231.434 11.5542 232.508 12.214 233.306 13.0732C234.135 13.9325 234.718 14.9759 235.056 16.2034C235.393 17.431 235.562 18.7966 235.562 20.3003V34.5704C234.58 34.7852 233.214 35.0307 231.465 35.3069C229.716 35.6138 227.598 35.7673 225.113 35.7673C223.547 35.7673 222.12 35.6292 220.832 35.353C219.573 35.0768 218.484 34.6318 217.563 34.018C216.643 33.3736 215.937 32.545 215.446 31.5323C214.955 30.5195 214.709 29.2767 214.709 27.8036C214.709 26.392 214.985 25.1951 215.538 24.2131C216.121 23.2311 216.888 22.4485 217.839 21.8654C218.791 21.2824 219.88 20.8681 221.108 20.6226C222.335 20.3464 223.609 20.2083 224.928 20.2083C225.818 20.2083 226.601 20.2543 227.276 20.3464C227.982 20.4077 228.55 20.4998 228.979 20.6226V19.9781C228.979 18.8119 228.626 17.876 227.921 17.1701C227.215 16.4643 225.987 16.1114 224.238 16.1114C223.072 16.1114 221.921 16.2034 220.786 16.3876C219.65 16.541 218.668 16.7712 217.839 17.0781L216.965 11.5542C217.364 11.4314 217.855 11.3087 218.438 11.1859C219.052 11.0325 219.711 10.9097 220.417 10.8176C221.123 10.6949 221.86 10.6028 222.627 10.5414C223.425 10.4494 224.223 10.4033 225.021 10.4033Z" fill="white"/>
<path d="M252.352 35.7673C250.51 35.7673 248.884 35.4757 247.472 34.8926C246.06 34.3096 244.879 33.481 243.928 32.4069C243.007 31.3021 242.301 29.9978 241.81 28.4941C241.319 26.9597 241.074 25.2718 241.074 23.4305C241.074 21.5586 241.319 19.8554 241.81 18.3209C242.332 16.7865 243.068 15.4669 244.02 14.3621C244.971 13.2574 246.122 12.4134 247.472 11.8304C248.822 11.2166 250.342 10.9097 252.029 10.9097C253.318 10.9097 254.515 11.0171 255.62 11.2319C256.755 11.4467 257.63 11.7229 258.244 12.0605L257.461 14.6383C256.847 14.3315 256.157 14.0859 255.39 13.9018C254.623 13.7177 253.594 13.6256 252.306 13.6256C249.666 13.6256 247.656 14.4849 246.275 16.2034C244.925 17.8913 244.25 20.3003 244.25 23.4305C244.25 24.8422 244.403 26.1465 244.71 27.3433C245.017 28.5095 245.508 29.5222 246.183 30.3815C246.889 31.21 247.779 31.8698 248.853 32.3608C249.958 32.8212 251.293 33.0513 252.858 33.0513C254.147 33.0513 255.221 32.9132 256.08 32.637C256.97 32.3302 257.615 32.0693 258.014 31.8545L258.658 34.4323C258.106 34.7392 257.231 35.0307 256.034 35.3069C254.868 35.6138 253.641 35.7673 252.352 35.7673Z" fill="white"/>
<path d="M271.177 33.0974C272.343 33.0974 273.356 33.0667 274.215 33.0053C275.105 32.9132 275.857 32.8058 276.471 32.6831V24.3052C276.133 24.1517 275.596 23.9983 274.86 23.8448C274.123 23.6607 273.11 23.5686 271.822 23.5686C271.085 23.5686 270.318 23.63 269.52 23.7528C268.722 23.8448 267.986 24.075 267.31 24.4433C266.635 24.7808 266.083 25.2565 265.653 25.8703C265.224 26.484 265.009 27.2973 265.009 28.31C265.009 29.1999 265.147 29.9518 265.423 30.5656C265.73 31.1793 266.144 31.6704 266.666 32.0386C267.218 32.4069 267.863 32.6831 268.599 32.8672C269.366 33.0206 270.226 33.0974 271.177 33.0974ZM270.901 10.9097C272.466 10.9097 273.786 11.1399 274.86 11.6002C275.964 12.0298 276.854 12.6436 277.53 13.4415C278.205 14.2087 278.696 15.1293 279.003 16.2034C279.309 17.2775 279.463 18.4437 279.463 19.7019V34.7085C279.156 34.8006 278.711 34.908 278.128 35.0307C277.545 35.1228 276.87 35.2302 276.103 35.353C275.335 35.4757 274.476 35.5678 273.525 35.6292C272.604 35.7212 271.653 35.7673 270.671 35.7673C269.413 35.7673 268.246 35.6292 267.172 35.353C266.129 35.0768 265.208 34.6471 264.41 34.064C263.643 33.4503 263.029 32.6831 262.569 31.7624C262.139 30.8111 261.925 29.6603 261.925 28.31C261.925 27.0211 262.17 25.9163 262.661 24.9956C263.152 24.075 263.843 23.3231 264.733 22.7401C265.622 22.1263 266.681 21.6813 267.909 21.4051C269.136 21.1289 270.471 20.9908 271.914 20.9908C272.343 20.9908 272.788 21.0215 273.249 21.0829C273.74 21.1136 274.2 21.1749 274.63 21.267C275.09 21.3284 275.473 21.4051 275.78 21.4972C276.118 21.5586 276.348 21.6199 276.471 21.6813V20.2083C276.471 19.3797 276.409 18.5818 276.287 17.8146C276.164 17.0167 275.888 16.3108 275.458 15.6971C275.059 15.0526 274.476 14.5463 273.709 14.178C272.972 13.7791 271.99 13.5796 270.763 13.5796C269.014 13.5796 267.709 13.7023 266.85 13.9478C265.991 14.1934 265.362 14.3928 264.963 14.5463L264.548 11.9224C265.07 11.6769 265.868 11.4467 266.942 11.2319C268.047 11.0171 269.366 10.9097 270.901 10.9097Z" fill="white"/>
<path d="M295.196 11.0018C296.178 11.0018 297.099 11.0785 297.958 11.2319C298.848 11.3854 299.462 11.5388 299.8 11.6923L299.201 14.2701C298.956 14.1473 298.449 14.0246 297.682 13.9018C296.946 13.7484 295.964 13.6717 294.736 13.6717C293.447 13.6717 292.404 13.7637 291.606 13.9478C290.839 14.132 290.332 14.2854 290.087 14.4082V35.2609H287.095V12.5669C287.862 12.2293 288.921 11.8917 290.271 11.5542C291.621 11.1859 293.263 11.0018 295.196 11.0018Z" fill="white"/>
<path d="M319.825 32.4989C319.641 32.6524 319.364 32.8365 318.996 33.0513C318.628 33.2355 318.168 33.4349 317.615 33.6498C317.094 33.8646 316.48 34.0487 315.774 34.2021C315.099 34.3249 314.332 34.3863 313.472 34.3863C312.091 34.3863 310.756 34.1715 309.467 33.7418C308.179 33.3122 307.043 32.637 306.061 31.7164C305.11 30.7957 304.343 29.6142 303.759 28.1719C303.176 26.6988 302.885 24.9189 302.885 22.8321C302.885 21.1443 303.146 19.5792 303.667 18.1368C304.189 16.6945 304.926 15.4516 305.877 14.4082C306.859 13.3341 308.04 12.5055 309.421 11.9224C310.833 11.3087 312.414 11.0018 314.163 11.0018C316.372 11.0018 318.137 11.1552 319.457 11.4621C320.807 11.7383 321.912 12.0145 322.771 12.2907V34.018C322.771 37.5779 321.85 40.1097 320.009 41.6134C318.168 43.1478 315.39 43.915 311.677 43.915C310.143 43.915 308.746 43.7923 307.488 43.5467C306.261 43.3319 305.202 43.0711 304.312 42.7642L304.91 40.0483C305.647 40.3858 306.644 40.6774 307.902 40.9229C309.191 41.1684 310.48 41.2912 311.769 41.2912C314.592 41.2912 316.633 40.7388 317.891 39.634C319.18 38.5599 319.825 36.7032 319.825 34.064V32.4989ZM319.779 14.3621C319.257 14.2087 318.582 14.0706 317.753 13.9478C316.925 13.7944 315.743 13.7177 314.209 13.7177C312.92 13.7177 311.769 13.9478 310.756 14.4082C309.774 14.8378 308.93 15.4669 308.225 16.2955C307.519 17.0934 306.982 18.0601 306.613 19.1956C306.245 20.3003 306.061 21.5279 306.061 22.8782C306.061 24.4433 306.276 25.7935 306.706 26.929C307.135 28.0338 307.688 28.9391 308.363 29.6449C309.069 30.3508 309.866 30.8725 310.756 31.21C311.646 31.5169 312.552 31.6704 313.472 31.6704C314.823 31.6704 316.05 31.4709 317.155 31.0719C318.29 30.673 319.165 30.2127 319.779 29.691V14.3621Z" fill="white"/>
<path d="M351 23.3845C351 25.2565 350.724 26.9597 350.171 28.4941C349.65 30.0285 348.898 31.3328 347.916 32.4069C346.964 33.481 345.829 34.3249 344.509 34.9387C343.19 35.5217 341.732 35.8133 340.136 35.8133C338.54 35.8133 337.083 35.5217 335.763 34.9387C334.444 34.3249 333.293 33.481 332.311 32.4069C331.359 31.3328 330.608 30.0285 330.055 28.4941C329.533 26.9597 329.273 25.2565 329.273 23.3845C329.273 21.5125 329.533 19.8093 330.055 18.2749C330.608 16.7405 331.359 15.4362 332.311 14.3621C333.293 13.2574 334.444 12.4134 335.763 11.8304C337.083 11.2166 338.54 10.9097 340.136 10.9097C341.732 10.9097 343.19 11.2166 344.509 11.8304C345.829 12.4134 346.964 13.2574 347.916 14.3621C348.898 15.4362 349.65 16.7405 350.171 18.2749C350.724 19.8093 351 21.5125 351 23.3845ZM347.824 23.3845C347.824 20.4077 347.133 18.0447 345.752 16.2955C344.371 14.5156 342.499 13.6256 340.136 13.6256C337.773 13.6256 335.901 14.5156 334.52 16.2955C333.139 18.0447 332.449 20.4077 332.449 23.3845C332.449 26.3613 333.139 28.7243 334.52 30.4735C335.901 32.2227 337.773 33.0974 340.136 33.0974C342.499 33.0974 344.371 32.2227 345.752 30.4735C347.133 28.7243 347.824 26.3613 347.824 23.3845Z" fill="white"/>
</svg>
